<?xml version="1.0" encoding="utf-8"?>
<!-- Generator: Adobe Illustrator 24.0.2, SVG Export Plug-In . SVG Version: 6.00 Build 0)  -->
<svg version="1.1" id="Layer_1" xmlns="http://www.w3.org/2000/svg" xmlns:xlink="http://www.w3.org/1999/xlink" x="0px" y="0px"
	 viewBox="0 0 40 40" style="enable-background:new 0 0 40 40;" xml:space="preserve">
<style type="text/css">
	.st0{fill:none;stroke:#999999;stroke-miterlimit:10;}
</style>
<path class="st0" d="M34.82,18.79c-0.37-1-0.94-1.56-1.65-2.29c-0.68-0.7-0.49-1.64-0.84-2.44c-0.3-0.67-0.75-1.3-0.88-2.04
	c-0.12-0.65-0.44-1.38-0.37-2.06c-0.38-0.11-0.75-0.29-1.02-0.46c-0.47-0.31-1.16-0.54-1.71-0.32c-0.55,0.22-0.73,0.69-1.36,0.84
	c-0.53,0.12-1.06,0.07-1.58-0.07c-1.02-0.27-1.91-0.9-2.89-1.27c-1.04-0.39-1.57-1.42-2.56-1.76c-1.14-0.39-3.2-0.9-4.37-0.39
	c-1.07,0.46-1.96,1.54-3,2.12c-0.77,0.44-1.69,0.49-2.46,0.01C9.5,8.28,9.08,7.37,8.27,7.36l0,0l0,0c0,0.01-0.01,0.02-0.01,0.03
	c-0.54,1.29-1.18,2.21-1.92,3.39c-0.85,1.35-0.37,2,0.56,3.12c2.27,2.73-1.81,5.09-0.59,8.06c0.19,0.47,0.73,1.47,0.36,1.91
	c-0.34,0.39-1.08,0.18-1.44,0.72c-0.47,0.69-0.18,1.37,0.38,1.85c0.28,0.24,0.59,0.38,0.76,0.71c0.14,0.26,0.05,0.63,0.17,0.85
	c0.7,1.21,2.38,0.62,2.55,2.34c0.08,0.85-0.06,2.26,0.56,2.95c0.93,1.04,2.12-0.28,2.68-0.98c0.61-0.77,1.53-1.27,2.09-2.02
	c0.41-0.55,0.15-1.34,0.52-1.87c0.51-0.72,0.91-0.44,1.03,0.21c0.15,0.85-0.41,3.29,1.36,2.26c1.88-1.09,2.2-2.61,3.01-4.38
	c0.44-0.95,1.28-1.17,2.15-1.57c0.7-0.33,1.81-1.36,2.66-1.05c0.63,0.23,0.65,1.33-0.07,1.59c-0.29,0.11-0.78-0.15-1.06,0.01
	c-0.48,0.28-0.87,1.35-1.27,1.8c-0.39,0.43-1.43,1.17-0.94,1.84c0.48,0.65,1.41,0.18,1.99,0.13c0.96-0.1,1.08,0.8,1.6,1.34
	c0.77,0.82,1.26-0.4,1.98-0.97c0.88-0.7,0-1.73,1.2-1.96c0.37-0.07,0.98,0.08,1.22-0.29c0.24-0.36-0.13-1.25-0.34-1.54
	c-0.66-0.87-2.25-1.03-2.25-2.36c0-0.98,1.25-1.73,2.09-1.91c1.07-0.23,1.69,0.72,1.85,1.74c0.14,0.89-0.91,1.45-0.39,2.44
	c0.7,1.32,1.62-0.86,1.94-1.35c0.23-0.36,0.55-0.63,0.96-0.78c0.39-0.13,0.75,0.13,1.04-0.18c0.18-0.19,0.16-0.79,0.19-1.02
	c0.04-0.43,0.27-1.45-0.14-1.77c-0.45-0.35-1.41,0.36-1.99,0.23c-1.14-0.25-0.67-1.07,0.11-1.42c0.11-0.05,0.24-0.1,0.38-0.16
	c0.03-0.01,0.06-0.03,0.1-0.04c0.28-0.12,0.6-0.23,0.91-0.33c0.03-0.01,0.05-0.01,0.07-0.02C34.5,18.87,34.66,18.82,34.82,18.79
	C34.82,18.79,34.82,18.79,34.82,18.79L34.82,18.79z M20.02,14.61c-0.27,0.63-1.32,1.21-1.98,1.23c-0.63,0.02-0.94,0-1.53,0.29
	c-0.46,0.23-0.92,0.57-1.46,0.5c-0.74-0.09-1.25-0.92-1.7-1.42c-0.53-0.58-1.26-0.61-0.95-1.49c0.31-0.88,1.92-2.53,2.98-1.97
	c0.65,0.35,1.13,0.79,1.9,0.86c0.52,0.04,1.31-0.32,1.78-0.12C19.67,12.74,20.28,13.97,20.02,14.61z"/>
</svg>
