<?xml version="1.0" encoding="utf-8"?>
<!-- Generator: Adobe Illustrator 24.0.2, SVG Export Plug-In . SVG Version: 6.00 Build 0)  -->
<svg version="1.1" id="Layer_1" xmlns="http://www.w3.org/2000/svg" xmlns:xlink="http://www.w3.org/1999/xlink" x="0px" y="0px"
	 viewBox="0 0 40 40" style="enable-background:new 0 0 40 40;" xml:space="preserve">
<style type="text/css">
	.st0{fill:none;stroke:#999999;stroke-miterlimit:10;}
</style>
<path class="st0" d="M19.02,35.45c-0.01-3.6-0.71-9.79,2.64-9.05c1.53,0.34,2.58,3.57,4.49,2.32c1.65-1.08,0.8-5.78,2.09-7.53
	c2.37-3.2,5.92-5.82,4.37-10.06c-1.3-3.56-0.68-7.86-5.39-6.9c-3.84,0.78-6.72,2.04-9.04,5.32c-0.63,0.9-0.93,1.85-2.19,1.94
	c-1.37,0.11-1.89-1.54-2.96-1.81c-1.83-0.46-5.85,3.93-6.03,5.72c-0.48,4.59,10.14-2.04,8.18,4.69c-0.55,1.9-2.07,1.88-3.52,2.7
	c-1.26,0.71-0.92,1.3-1.3,2.42c-0.42,1.27-1.08,1.72-1.69,2.83c-1.34,2.46,1.41,4.6,1.63,7.11c0.58,0.12,1.18,0.27,1.93,0.48
	C14.47,36.27,16.73,35.6,19.02,35.45z"/>
</svg>
