<?xml version="1.0" encoding="utf-8"?>
<!-- Generator: Adobe Illustrator 24.0.2, SVG Export Plug-In . SVG Version: 6.00 Build 0)  -->
<svg version="1.1" id="Layer_1" xmlns="http://www.w3.org/2000/svg" xmlns:xlink="http://www.w3.org/1999/xlink" x="0px" y="0px"
	 viewBox="0 0 40 40" style="enable-background:new 0 0 40 40;" xml:space="preserve">
<style type="text/css">
	.st0{fill:none;stroke:#999999;stroke-miterlimit:10;}
</style>
<path class="st0" d="M4.17,29.03c-0.03,0-0.06,0.02-0.09,0.03c0.66,1.3,3.53,2.69,4.82,2.61c1.78-0.12,3.04-1.78,4.82-1.91
	c1.29-0.09,2.91,0.74,4.03,1.27c2.84,1.33,5.41,3.47,8.41,1.11c2.54-2,2.77-5.57,4.88-7.77c1.36-1.41,4.22-2.14,4.84-4.15
	c0.46-1.48-0.62-4.06-1.19-5.37c-2.26,0.13-4.64,3.49-7,2.41c-2.51-1.13,0.31-2.97,0.47-4.87c0.21-2.47-1.67-3.3-3.34-4.52
	c-1.85-1.35-3.8-3.31-5.88-1.84c-0.99,0.7-1.06,2.39-2.19,2.92c-1.21,0.56-2.18-0.57-3.58,0.32c-1.93,1.22-2.11,4.56-3.15,6.41
	C8.75,17.91,6.03,18.87,4,20.53C4.55,23.08,4.27,26.44,4.17,29.03z"/>
</svg>
