<?xml version="1.0" encoding="utf-8"?>
<!-- Generator: Adobe Illustrator 24.0.2, SVG Export Plug-In . SVG Version: 6.00 Build 0)  -->
<svg version="1.1" id="Layer_1" xmlns="http://www.w3.org/2000/svg" xmlns:xlink="http://www.w3.org/1999/xlink" x="0px" y="0px"
	 viewBox="0 0 40 40" style="enable-background:new 0 0 40 40;" xml:space="preserve">
<style type="text/css">
	.st0{fill:none;stroke:#999999;stroke-miterlimit:10;}
</style>
<path class="st0" d="M31.6,23.03c3.66-4.97-0.83-3.58-2.64-6.9c-1.13-2.06-0.12-3.15-2.65-4.03c-1.51-0.53-3.4,0.15-4.83-0.73
	c-1.5-0.95-1.4-2.55-2.58-3.72c-1.17-1.15-1.8-0.89-3.26-1.57c0.04,0.55,0.08,1.1,0.04,1.68c-0.3,6.38-9.16,8.33-8.67,14.12
	c0.15,1.86,0.11,7.06,1.01,8.52c1.24,2.01,3.91,0.77,5.77,0.5c3.34-0.48,2.33,1.11,4.43,2.52c2.75,1.83,6.21-1.9,9.2-1.88
	c0.15,0,0.28,0.02,0.42,0.03c0.89-1.36,0.54-3.27,1.05-4.83C29.42,25.18,30.67,24.3,31.6,23.03z"/>
</svg>
