<?xml version="1.0" encoding="utf-8"?>
<!-- Generator: Adobe Illustrator 24.0.2, SVG Export Plug-In . SVG Version: 6.00 Build 0)  -->
<svg version="1.1" id="Layer_1" xmlns="http://www.w3.org/2000/svg" xmlns:xlink="http://www.w3.org/1999/xlink" x="0px" y="0px"
	 viewBox="0 0 40 40" style="enable-background:new 0 0 40 40;" xml:space="preserve">
<style type="text/css">
	.st0{fill:none;stroke:#999999;stroke-miterlimit:10;}
</style>
<path class="st0" d="M36.9,31.87c-0.28-0.68-0.79-1.25-1.06-1.95c-0.35-0.88-0.71-1.67-1.13-2.52c-0.62-1.25-1-2.49-1.74-3.69
	c-0.99-1.6-2.22-2.93-3.45-4.35c-0.73-0.83-1.32-1.79-2.03-2.67c-1.5-1.86-2.11-4.3-2.92-6.5c-0.42-1.15-0.87-2.3-1.37-3.41
	c-0.12-0.26-0.25-0.52-0.39-0.78c-0.7,0.36-1.27,0.85-1.66,1.77c-0.42,0.99-0.79,1.93-1.59,2.67c-1.26,1.17-3.28,0.87-4.82,0.66
	c-2.77-0.39-5.33,0.01-8.09,0.06C5.05,11.2,4.24,12.13,3,12.88c0.25-0.14,0.52-0.32,0.78-0.37c0.97-0.22,1.12,0.63,1.44,1.3
	c0.46,0.98,1.31,0.38,2.07,0.8c0.43,0.23,0.52,0.74,0.78,1.12c0.3,0.44,0.77,0.77,1.2,1.07c0.5,0.35,1,0.57,1.53,0.87
	c0.32,0.18,0.8,0.45,0.96,0.8c0.45,0.99-0.55,1.65-0.92,2.44c-0.25,0.52-0.22,1.97,0.3,2.33c0.4,0.27,0.88,0.34,1.31,0.55
	c0.45,0.22,0.57,0.56,0.81,0.96c0.44,0.72,1.28,0.9,1.18,1.89c-0.09,0.9-0.28,1.81-0.37,2.72c-0.08,0.82-0.1,1.58-0.54,2.25
	c0.1,0.11,0.2,0.2,0.29,0.31c1.1,1.35,2.53-0.7,3.65-0.98c0.8-0.2,1.78-0.03,2.57,0.14c1.22,0.25,2.09,1.19,3.16,1.75
	c0.57,0.3,1,0.34,1.62,0.33c0.82-0.01,1.47,0.66,2.22,0.81c0.09,0.02,0.19,0.03,0.29,0.03c0.8,0,1.66-0.54,2.45-0.69
	c0.83-0.15,1.67-0.06,2.49-0.07c0.78-0.01,1.55,0.5,2.33,0.35c0.41-0.08,0.67-0.64,0.98-0.9c0.44-0.37,0.9-0.4,1.43-0.53
	C36.97,32.06,36.94,31.96,36.9,31.87z"/>
</svg>
