<?xml version="1.0" encoding="utf-8"?>
<!-- Generator: Adobe Illustrator 24.0.2, SVG Export Plug-In . SVG Version: 6.00 Build 0)  -->
<svg version="1.1" id="Layer_1" xmlns="http://www.w3.org/2000/svg" xmlns:xlink="http://www.w3.org/1999/xlink" x="0px" y="0px"
	 viewBox="0 0 40 40" style="enable-background:new 0 0 40 40;" xml:space="preserve">
<style type="text/css">
	.st0{fill:none;stroke:#999999;stroke-miterlimit:10;}
</style>
<path class="st0" d="M30.73,6.06c-0.4-0.28-0.85-0.54-1.29-0.8c-0.05,0.14-0.11,0.26-0.2,0.44c-0.72,1.56-2.51,2.34-3.59,3.57
	c-1.54,1.75-2.58,3.73-4.23,5.33c-1.51,1.45-3.07,1.8-4.83,2.7c-1.9,0.96-3.34,2.83-5.12,4c-2.36,1.56-6.74,1.28-8.15,4.12
	c-0.92,1.86,0.47,2.41,1.3,3.89c0.99,1.74,0.96,3.6,1.75,5.42c0.07,0.01,0.13,0,0.2,0l0,0c0.63,0.03,1.26-0.04,1.9-0.19
	c0.08-0.02,0.15-0.06,0.22-0.08c0.25-0.07,0.49-0.14,0.74-0.24c0.33-0.14,0.66-0.29,0.99-0.48c2.41-1.37,3.65-2.84,6.7-2.41
	c3.16,0.44,4.21,2.01,6.86-0.56c2.18-2.11,2.55-5.25,4.76-7.19c1.75-1.55,4.33-1.53,5.86-3.31c2.14-2.47,0.96-6.36,2.22-9.14
	c0.05-0.12,0.13-0.23,0.18-0.33C35.34,9.7,32.87,7.54,30.73,6.06z"/>
</svg>
