<?xml version="1.0" encoding="utf-8"?>
<!-- Generator: Adobe Illustrator 24.0.2, SVG Export Plug-In . SVG Version: 6.00 Build 0)  -->
<svg version="1.1" id="Layer_1" xmlns="http://www.w3.org/2000/svg" xmlns:xlink="http://www.w3.org/1999/xlink" x="0px" y="0px"
	 viewBox="0 0 40 40" style="enable-background:new 0 0 40 40;" xml:space="preserve">
<style type="text/css">
	.st0{fill:none;stroke:#999999;stroke-miterlimit:10;}
</style>
<path class="st0" d="M23.93,9.94c-2.5,0.04-3.82-0.89-5.92-1.85c-4.41-2.01-8.28,0.86-12.33,2.53c-0.22,2.69-2.96,4.54-2.66,7.15
	c0.43,3.88,6.78,2.1,9.15,3.76c1.25,0.87,1.55,2.73,2.54,3.81c0.66,0.72,1.57,1.24,2.46,1.74c0.03-0.05,0.06-0.12,0.08-0.16
	c-0.02,0.04-0.05,0.11-0.08,0.16c0.45,0.26,0.89,0.51,1.29,0.79c2.14,1.49,4.61,3.64,6.27,4.74l0,0l0,0c0,0,0.01,0,0.01-0.01l0,0
	c0,0,0,0,0-0.01c0.91-1.63,2.54-2.45,4.01-3.71c0.01-0.01,0.03-0.02,0.04-0.03c0.23-0.19,0.45-0.39,0.66-0.62
	c1.79-1.82,3.09-3.85,4.22-6.14c0.35-0.72,0.66-1.45,0.95-2.2c0.08-0.22,0.16-0.45,0.25-0.67c0.2-0.58,0.39-1.16,0.57-1.75
	c0.06-0.21,0.12-0.4,0.18-0.6c0.18-0.68,0.34-1.38,0.49-2.08c0.08-0.4,0.16-0.81,0.23-1.21c0.06-0.32,0.11-0.63,0.16-0.94
	c0.25-1.69,0.42-3.41,0.5-5.13C32.43,7.4,28.56,9.87,23.93,9.94z"/>
</svg>
