<?xml version="1.0" encoding="utf-8"?>
<!-- Generator: Adobe Illustrator 24.0.2, SVG Export Plug-In . SVG Version: 6.00 Build 0)  -->
<svg version="1.1" id="Layer_1" xmlns="http://www.w3.org/2000/svg" xmlns:xlink="http://www.w3.org/1999/xlink" x="0px" y="0px"
	 viewBox="0 0 40 40" style="enable-background:new 0 0 40 40;" xml:space="preserve">
<style type="text/css">
	.st0{fill:none;stroke:#999999;stroke-miterlimit:10;}
</style>
<path class="st0" d="M31.52,20.07c-0.3-0.5-0.46-0.92-1.01-1.19c-0.53-0.26-1.13-0.34-1.62-0.68c-0.64-0.44-0.68-2.25-0.37-2.9
	c0.47-0.98,1.7-1.8,1.14-3.03c-0.2-0.43-0.79-0.78-1.19-1c-0.66-0.37-1.28-0.64-1.9-1.08c-0.54-0.37-1.11-0.79-1.49-1.33
	c-0.32-0.47-0.43-1.1-0.97-1.39c-0.94-0.51-1.99,0.23-2.57-0.99c-0.4-0.83-0.58-1.89-1.79-1.62c-0.32,0.07-0.65,0.29-0.97,0.46
	c-0.02,0.01-0.05,0.03-0.07,0.04c-0.41,0.25-0.96,0.36-1.43,0.4c-1.35,0.1-2.91,2.77-1.21,2.99c0.33,0.04,0.5,0.32,0.36,0.63
	c-0.55,1.27-1.59,1.68-2.85,2.06c-0.64,0.19-1.25,1.11-0.38,1.38c0.11,0.04,0.2,0.1,0.29,0.17c0.22,0.16,0.21,0.36,0.21,0.61
	c0.02,0.85-1.2,2.06-1.91,2.39c-1.41,0.64-1.79-1.69-3.37-1.52c-0.1,1.27-2.23,2.29-1.13,3.79c0.06,0.09,0.13,0.16,0.21,0.23
	c0.02,0.02,0.04,0.04,0.07,0.06c0.06,0.05,0.11,0.1,0.17,0.14c0.02,0.02,0.05,0.03,0.07,0.05c0.08,0.05,0.15,0.1,0.24,0.14
	c0,0,0.01,0.01,0.01,0.01c0.91,0.47,2.1,0.47,2.91,1.07l0,0c-0.01-0.53,1.14-0.91,1.64-0.77c0.48,0.13,0.83,0.74,1.24,1.03
	c0.46,0.33,1.05,0.56,1.19,1.17c0,0.01,0,0.03,0.01,0.04c0.49-0.4,1.14-0.63,1.45-1.17c0.25-0.44,0.29-1.25,0.76-1.54
	c0.34-0.21,0.57,0.06,0.86-0.08c0.27-0.13,0.29-0.53,0.53-0.7c0.5-0.35,0.97,0.12,1.41,0.44c0.4,0.29,0.85,0.49,0.8,1.09
	c-0.04,0.46-0.72,0.9-0.11,1.17c0.57,0.26,1.14-0.55,1.68-0.58c0.14,0.31,0.4,0.94,0.29,1.29c-0.15,0.48-0.84,0.66-1.16,1
	c-0.51,0.53-0.56,1.39-1.17,1.87c-0.72,0.57-1.34,0.05-2.02-0.27c-0.27-0.13-0.66-0.33-0.97-0.3c-0.43,0.03-0.73,0.43-1.16,0.46
	c-0.31,0.02-1-0.31-1.16-0.63c-0.85,0.23-1.23,1.56-1.95,2.09c-0.99,0.73-1.09-0.02-1.65-0.66h0c-0.05,0.05-0.11,0.1-0.17,0.15
	c-0.03,0.02-0.05,0.04-0.08,0.06c-0.03,0.02-0.06,0.04-0.09,0.06c-0.07,0.04-0.15,0.08-0.24,0.13c-0.54,0.25-1.48,0.31-1.78,0.87
	c-0.27,0.52-0.37,1.06,0.06,1.42c0.12,0.1,0.21,0.15,0.29,0.29c0.08,0.13,0.17,0.26,0.28,0.38c0.22,0.25,0.45,0.28,0.78,0.31
	c0.31,0.02,0.65-0.01,0.95,0.07c0.47,0.13,0.77,0.53,1.06,0.87c0.23,0.26,0.36,0.62,0.54,0.92c0.23,0.38,0.53,0.71,0.82,1.04
	c0.14,0.16,0.29,0.33,0.42,0.51c0,0,0,0,0,0c0.09,0.12,0.17,0.25,0.22,0.38c0.09,0.23,0.18,0.51,0.13,0.76
	c-0.04,0.22-0.23,0.28-0.43,0.27c0.24,0.18,0.5,0.39,0.74,0.59c0.2,0.17,0.38,0.35,0.59,0.51c0.81,0.63,1.96,0.82,2.94,0.53
	c1.06-0.32,1.98-1.35,3.19-0.95c0.58,0.19,0.84,0.57,1.49,0.6c0.17,0.01,0.31,0,0.44-0.02c0.24-0.04,0.44-0.12,0.71-0.27
	c0.78-0.45,1.6-0.74,2.14-1.48c0.31-0.43,0.57-0.84,1.05-1.1c0.5-0.27,1.07-0.28,1.57-0.56c0.97-0.55,1.83-1.52,2.53-2.34
	c0.09-0.1,0.17-0.21,0.24-0.32c0.55-0.83,0.58-1.77,0.67-2.79c0.11-1.14,0.35-2.27,0.46-3.39C33.11,21.19,32.06,20.97,31.52,20.07z"
	/>
</svg>
