<?xml version="1.0" encoding="utf-8"?>
<!-- Generator: Adobe Illustrator 24.0.2, SVG Export Plug-In . SVG Version: 6.00 Build 0)  -->
<svg version="1.1" id="Layer_1" xmlns="http://www.w3.org/2000/svg" xmlns:xlink="http://www.w3.org/1999/xlink" x="0px" y="0px"
	 viewBox="0 0 40 40" style="enable-background:new 0 0 40 40;" xml:space="preserve">
<style type="text/css">
	.st0{fill-rule:evenodd;clip-rule:evenodd;fill:none;stroke:#999999;stroke-miterlimit:10;}
</style>
<path class="st0" d="M7.51,13.11c-0.2-0.19-0.37-0.35-0.54-0.51c-0.02-0.02-0.06-0.04-0.06-0.06c0.11-0.53-0.35-0.48-0.63-0.6
	c-0.02-0.01-0.03-0.02-0.08-0.06c0.1-0.27,0.19-0.56,0.33-0.81c0.06-0.1,0.29-0.2,0.4-0.16c0.34,0.12,0.63,0,0.92-0.14
	c0.2,0.16,0.41,0.16,0.63,0.04c0.06-0.03,0.14-0.04,0.21-0.06c0.15-0.04,0.36-0.01,0.34-0.27c0-0.03,0.04-0.07,0.07-0.08
	c0.33-0.05,0.23-0.33,0.25-0.52c0.03-0.23-0.02-0.47-0.03-0.71c0-0.03,0.02-0.07,0.04-0.13C9.55,9.13,9.72,9.14,9.86,9.4
	c0.2,0.39,0.61,0.56,0.99,0.15c0.28,0.06,0.55,0.15,0.82,0.17c0.22,0.02,0.45-0.06,0.73-0.1c0.28,0.18,0.27,0.17,0.57-0.12
	c0.14-0.13,0.29-0.19,0.49-0.03c0.37,0.3,0.54,0.22,0.68-0.25c0.03-0.1,0.21-0.2,0.33-0.21c0.34-0.01,0.42-0.06,0.44-0.4
	c0.03-0.63,0.4-0.9,1.04-0.88c0.42,0.01,0.78,0.17,1.16,0.31c0.32,0.12,0.66,0.24,1.04,0.13c0.27-0.08,0.43,0.13,0.59,0.31
	c0.04,0.05,0.07,0.11,0.11,0.16C19.05,9,19.1,9,19.41,8.72c0.45-0.4,0.78-0.33,0.97,0.24c0.09,0.26,0.17,0.49,0.52,0.35
	c0.02-0.01,0.04,0,0.06,0c0.5,0.02,0.53,0.03,0.68-0.47c0.18-0.64,0.67-1.03,1.07-1.49c0.03-0.03,0.08-0.06,0.1-0.09
	c0.22-0.31,0.48-0.49,0.9-0.4c0.2,0.04,0.43-0.05,0.64-0.06c0.18-0.01,0.31,0.05,0.33,0.28c0.02,0.21,0.08,0.43,0.14,0.63
	c0.06,0.21,0.61,0.36,0.79,0.22c0.19-0.15,0.38-0.31,0.57-0.47c0.05-0.04,0.06-0.11,0.1-0.16c0.09-0.1,0.2-0.28,0.28-0.27
	c0.14,0.01,0.28,0.14,0.41,0.23C27,7.29,27.02,7.4,27.05,7.4c0.25,0.01,0.29,0.16,0.27,0.41c0.22,0,0.44-0.02,0.65,0
	c0.17,0.02,0.34,0.11,0.5,0.11c0.16,0,0.31-0.08,0.47-0.09c0.08-0.01,0.18,0.04,0.23,0.1c0.17,0.19,0.33,0.39,0.46,0.61
	c0.05,0.09,0.04,0.24,0.02,0.36c-0.03,0.19-0.08,0.38-0.13,0.56c-0.03,0.1-0.05,0.23-0.12,0.29c-0.27,0.22-0.26,0.46,0.07,0.6
	c0.15,0.06,0.25,0.13,0.28,0.31c0.04,0.2,0.35,0.35,0.61,0.33c0.2-0.01,0.4,0.02,0.6,0.02c0.11,0,0.21-0.04,0.32-0.05
	c0.07-0.01,0.17-0.04,0.22-0.01c0.05,0.04,0.08,0.14,0.07,0.21c-0.03,0.25-0.04,0.52-0.12,0.75c-0.13,0.36,0.13,0.59,0.21,0.88
	c0.38,0.03,0.28,0.45,0.5,0.62c0.18,0.15,0.31,0.31,0.58,0.26c0.18-0.04,0.26,0.12,0.2,0.3c-0.04,0.13-0.06,0.3-0.01,0.41
	c0.11,0.26,0.3,0.5,0.42,0.76c0.1,0.22,0.16,0.45,0.23,0.69c0.05,0.17,0.07,0.35,0.11,0.53c0.05,0.22,0.1,0.44-0.03,0.66
	c-0.04,0.07-0.02,0.18-0.03,0.27c-0.03,0.18-0.02,0.37-0.09,0.54c-0.09,0.23-0.1,0.42,0.12,0.59c0.08,0.06,0.19,0.13,0.22,0.22
	c0.06,0.16,0.17,0.41,0.1,0.5c-0.1,0.14-0.34,0.25-0.52,0.25c-0.4,0-0.55,0.05-0.72,0.39c-0.01,0.02-0.01,0.05-0.02,0.05
	c-0.31,0.08-0.33,0.35-0.4,0.6c-0.05,0.18-0.16,0.38-0.44,0.35c-0.06-0.01-0.22,0.16-0.21,0.23c0.04,0.32-0.21,0.45-0.36,0.65
	c-0.08,0.11-0.16,0.21-0.25,0.33c0.3,0.24,0.09,0.44-0.02,0.66c-0.07,0.15-0.15,0.31-0.15,0.47c0.01,0.26-0.14,0.43-0.25,0.64
	c-0.17,0.31-0.28,0.64-0.41,0.96c-0.65-0.02-1.12,0.15-1.37,0.49c0.32,0.56,0.32,0.6,0.14,1.18c-0.29,0.12-0.65,0.04-0.89,0.31
	c-0.02,0.02-0.05,0.03-0.06,0.05c-0.29,0.39-0.3,0.41-0.67,0.1c-0.35-0.29-0.71-0.23-1.08-0.08c-0.35,0.14-0.69,0.23-1.08,0.2
	c-0.27-0.02-0.58,0.09-0.83,0.21c-0.29,0.13-0.51,0.31-0.89,0.25c-0.26-0.04-0.58,0.14-0.83,0.29c-0.21,0.13-0.35,0.36-0.52,0.54
	c-0.39,0.39-0.82,0.64-1.42,0.54c-0.13-0.02-0.34,0.11-0.44,0.23c-0.33,0.41-0.64,0.85-0.97,1.31c-0.14-0.09-0.23-0.15-0.3-0.2
	c-0.22,0.11-0.44,0.2-0.65,0.32c-0.2,0.12-0.39,0.25-0.58,0.39c-0.19,0.14-0.39,0.27-0.55,0.43c-0.18,0.18-0.31,0.41-0.48,0.61
	c-0.25,0.29-0.31,0.28-0.67,0.12c-0.55-0.25-1.09-0.22-1.64,0.04c-0.13,0.06-0.29,0.06-0.41,0.13c-0.12,0.07-0.25,0.19-0.3,0.32
	c-0.1,0.27-0.43,0.58-0.71,0.6c-0.14,0.01-0.29,0.07-0.42,0.05c-0.16-0.03-0.33-0.08-0.44-0.19c-0.23-0.23-0.33-0.24-0.51,0.02
	c-0.18,0.26-0.66,0.25-0.81-0.02c-0.29-0.52-0.54-1.06-0.87-1.54c-0.37-0.54-0.82-1.02-1.24-1.52c-0.21-0.25-0.25-0.42-0.04-0.68
	c0.27-0.34,0.51-0.71,1-0.77c0.05-0.01,0.09-0.09,0.12-0.14c0.08-0.15,0.14-0.32,0.24-0.46c0.13-0.18,0.29-0.34,0.44-0.52
	c0.03-0.04,0.06-0.1,0.05-0.15c-0.02-0.21-0.04-0.43-0.09-0.64c-0.08-0.33-0.19-0.66-0.3-0.98c-0.02-0.05-0.11-0.08-0.17-0.11
	c-0.42-0.15-0.57-0.57-0.33-0.96c0.04-0.06,0.04-0.16,0.02-0.22c-0.09-0.23-0.2-0.45-0.31-0.67c-0.11-0.2-0.11-0.4-0.1-0.63
	c0.02-0.3-0.12-0.61-0.21-0.91c-0.01-0.05-0.1-0.12-0.15-0.12c-0.48-0.01-0.68-0.46-1.04-0.66c-0.21-0.11-0.27-0.37-0.15-0.62
	c0.26-0.53,0.04-1-0.35-1.35c-0.42-0.38-0.56-0.84-0.52-1.38c0.02-0.32-0.26-0.65-0.56-0.76C6.15,17.17,6.01,17,6,16.88
	c-0.01-0.14,0.05-0.36,0.16-0.43c0.17-0.11,0.21-0.22,0.22-0.41c0.03-0.34,0.04-0.7,0.38-0.93c0.05-0.04,0.1-0.12,0.11-0.19
	c0.07-0.33,0.11-0.64,0.44-0.86c0.14-0.1,0.14-0.42,0.18-0.65C7.52,13.3,7.51,13.18,7.51,13.11z"/>
</svg>
