<?xml version="1.0" encoding="utf-8"?>
<!-- Generator: Adobe Illustrator 24.0.2, SVG Export Plug-In . SVG Version: 6.00 Build 0)  -->
<svg version="1.1" id="Layer_1" xmlns="http://www.w3.org/2000/svg" xmlns:xlink="http://www.w3.org/1999/xlink" x="0px" y="0px"
	 viewBox="0 0 40 40" style="enable-background:new 0 0 40 40;" xml:space="preserve">
<style type="text/css">
	.st0{fill:none;stroke:#999999;stroke-miterlimit:10;}
</style>
<path class="st0" d="M10,7.69c1.51,1.13,2.76,2.67,3.52,4.99c1.18,3.63,0.77,8.21,0.62,12.09c-0.12,3.28-0.24,5.22-1.77,6.77l0,0
	l0,0c2.72,3.04,3.19,6.69,7.96,3.16c3.45-2.55,5.29-8.96,9.38-10.07c-0.02-0.06-0.08-0.11-0.1-0.16c0.02,0.05,0.07,0.11,0.1,0.16
	c0.03-0.01,0.07-0.03,0.1-0.03c0.12-2.99,0.43-6.87-0.2-9.82c-0.02,0.01-0.03,0.03-0.04,0.04c0.02-0.01,0.03-0.02,0.04-0.04
	c-0.02-0.06-0.02-0.14-0.03-0.21c-0.69-2.94-3.5-4.02-5.74-5.62c-1.99-1.43-3.63-4.33-5.96-4.97C15.5,3.33,9.97,5.12,10,7.69
	L10,7.69L10,7.69z"/>
</svg>
