<?xml version="1.0" encoding="utf-8"?>
<!-- Generator: Adobe Illustrator 24.0.2, SVG Export Plug-In . SVG Version: 6.00 Build 0)  -->
<svg version="1.1" id="Layer_1" xmlns="http://www.w3.org/2000/svg" xmlns:xlink="http://www.w3.org/1999/xlink" x="0px" y="0px"
	 viewBox="0 0 40 40" style="enable-background:new 0 0 40 40;" xml:space="preserve">
<style type="text/css">
	.st0{fill:none;stroke:#999999;stroke-miterlimit:10;}
</style>
<path class="st0" d="M30.81,22.6c-0.13,0.03-0.26,0.22-0.36,0.3c-0.19,0.17-0.43,0.44-0.69,0.27c-0.33-0.22-0.08-0.59-0.02-0.86
	c0.07-0.3,0.11-0.64,0.13-0.94c0.04-0.71,0.09-1.4,0.13-2.11c0.03-0.69,0.02-1.45-0.16-2.13c-0.03-0.1-0.05-0.2-0.07-0.31
	c0-0.01,0-0.02-0.01-0.04c-0.14-0.69-0.19-1.44-0.43-2.09l0,0c-0.01-0.04-0.03-0.08-0.04-0.12c-0.12-0.29-0.34-0.54-0.45-0.83
	c-0.15-0.38-0.3-0.71-0.48-1.08c-0.27-0.53-0.43-1.07-0.74-1.58c-0.42-0.69-0.95-1.26-1.48-1.86c-0.31-0.36-0.57-0.77-0.87-1.14
	c-0.64-0.8-0.9-1.84-1.25-2.78c-0.18-0.49-0.37-0.99-0.59-1.46c-0.05-0.11-0.11-0.22-0.17-0.34c-0.3,0.15-0.54,0.37-0.71,0.76
	c-0.18,0.42-0.34,0.83-0.68,1.14c-0.54,0.5-1.4,0.37-2.06,0.28c-1.19-0.17-2.28,0-3.46,0.03c-0.68,0.01-1.03,0.41-1.56,0.73
	c-0.01,0-0.02,0.01-0.02,0.01c-0.14,0.08-0.33,0.13-0.49,0.14c-0.47,0.03-1,0.96-0.42,1.03c0.11,0.01,0.17,0.11,0.12,0.22
	C13.79,8.28,13.43,8.42,13,8.55c-0.22,0.07-0.43,0.38-0.13,0.48c0.04,0.01,0.07,0.03,0.1,0.06c0.08,0.05,0.07,0.12,0.07,0.21
	c0.01,0.29-0.41,0.71-0.66,0.82c-0.49,0.22-0.62-0.58-1.16-0.52c-0.03,0.44-0.77,0.79-0.39,1.31c0.02,0.03,0.05,0.06,0.07,0.08
	c0.01,0.01,0.02,0.01,0.02,0.02c0.02,0.02,0.04,0.03,0.06,0.05c0.01,0.01,0.02,0.01,0.02,0.02c0.03,0.02,0.05,0.03,0.08,0.05
	c0,0,0,0,0,0c0.31,0.16,0.72,0.16,1,0.37l0,0c0.11,0.08,0.2,0.19,0.25,0.36c0.08,0.26,0.06,0.59,0.04,0.87
	c-0.01,0.23-0.02,0.37-0.13,0.48h0c-0.02,0.02-0.04,0.04-0.06,0.05c-0.01,0.01-0.02,0.01-0.03,0.02c-0.01,0.01-0.02,0.01-0.03,0.02
	c-0.03,0.01-0.05,0.03-0.08,0.04c-0.19,0.09-0.51,0.11-0.61,0.3c-0.09,0.18-0.13,0.37,0.02,0.49c0.04,0.04,0.07,0.05,0.1,0.1
	c0.03,0.05,0.06,0.09,0.09,0.13c0.08,0.09,0.16,0.1,0.27,0.11c0.11,0.01,0.22,0,0.33,0.02c0.16,0.04,0.26,0.18,0.37,0.3
	c0.08,0.09,0.12,0.21,0.18,0.32c0.08,0.13,0.18,0.24,0.28,0.36c0.05,0.05,0.1,0.11,0.14,0.18c0,0,0,0,0,0
	c0.03,0.04,0.06,0.09,0.08,0.13c0.03,0.08,0.06,0.17,0.05,0.26c-0.01,0.08-0.08,0.1-0.15,0.09c-0.02,0-0.04,0-0.05-0.01
	c-0.07-0.01-0.13-0.05-0.2-0.08c-0.11-0.06-0.22-0.1-0.33-0.15c-0.14-0.07-0.29-0.12-0.42-0.21c-0.2-0.13-0.44-0.28-0.69-0.25
	c-0.29,0.03-0.45,0.33-0.69,0.48c-0.14,0.09-0.32,0.2-0.24,0.37c0.07,0.15,0.27,0.21,0.29,0.4c0.03,0.27-0.27,0.4-0.49,0.46
	c-0.11,0.03-0.25,0.09-0.37,0.1c-0.17,0.02-0.3-0.05-0.47,0.04C9.36,17.38,9.04,17.63,9,17.88c-0.06,0.43,0.5,0.46,0.78,0.55
	c0.3,0.1,0.56,0.28,0.85,0.39c0.18,0.07,0.41,0.13,0.56,0.26c0.42,0.37,0.17,1.05,0.25,1.52c0.04,0.25,0.31,0.35,0.39,0.59
	c0.15,0.45-0.28,0.94,0.01,1.38c0.14,0.22,0.4,0.34,0.49,0.61c0.01,0.04,0.02,0.07,0.02,0.1c0,0.01,0,0.02,0,0.03
	c0,0.02,0,0.04,0,0.05c0,0.01,0,0.02,0,0.03c0,0.01,0,0.03-0.01,0.04c0,0.01-0.01,0.02-0.01,0.02c-0.01,0.01-0.01,0.03-0.02,0.04
	c0,0.01-0.01,0.01-0.01,0.02c-0.01,0.01-0.02,0.03-0.03,0.04c0,0,0,0-0.01,0.01c-0.04,0.05-0.09,0.1-0.15,0.17
	c0,0-0.01,0.01-0.01,0.01c0,0,0,0,0,0c-0.18,0.21-0.16,0.32,0.05,0.52c0.08,0.08,0.16,0.12,0.23,0.23c0.06,0.12-0.03,0.14,0.1,0.23
	c0.21,0.13,0.47-0.12,0.48,0.23c0.01,0.29-0.27,0.36-0.48,0.43c-0.3,0.11-0.47,0.14-0.59,0.43c-0.06,0.13-0.09,0.26-0.17,0.38
	c-0.07,0.11-0.24,0.21-0.27,0.34c-0.09,0.36,0.38,0.27,0.6,0.33c0.46,0.14-0.05,0.42-0.27,0.52c-0.38,0.18-0.51,0.3-0.67,0.7
	c0,0.01-0.01,0.02-0.01,0.02c0,0,0,0.01,0,0.01c-0.17,0.41-0.38,0.7-0.61,1.08c-0.27,0.43-0.12,0.64,0.18,0.99
	c0.72,0.87-0.58,1.62-0.19,2.56c0.06,0.15,0.23,0.47,0.11,0.61c-0.11,0.13-0.34,0.06-0.46,0.23c-0.15,0.22-0.06,0.44,0.12,0.59
	c0.09,0.08,0.19,0.12,0.24,0.23c0.04,0.08,0.01,0.2,0.06,0.27c0.22,0.38,0.76,0.2,0.81,0.75c0.03,0.27-0.02,0.72,0.18,0.94
	c0.3,0.33,0.67-0.09,0.85-0.31c0.19-0.24,0.49-0.4,0.66-0.64c0.13-0.17,0.05-0.43,0.17-0.59c0.16-0.23,0.29-0.14,0.33,0.07
	c0.05,0.27-0.13,1.04,0.43,0.72c0.6-0.35,0.7-0.83,0.96-1.39c0.14-0.3,0.41-0.37,0.68-0.5c0.22-0.1,0.58-0.43,0.85-0.33
	c0.2,0.07,0.21,0.42-0.02,0.51c-0.09,0.03-0.25-0.05-0.34,0c-0.15,0.09-0.27,0.43-0.41,0.57c-0.12,0.14-0.46,0.37-0.3,0.58
	c0.15,0.21,0.45,0.06,0.63,0.04c0.31-0.03,0.34,0.25,0.51,0.43c0.25,0.26,0.4-0.13,0.63-0.31c0.28-0.22,0-0.55,0.38-0.62
	c0.12-0.02,0.31,0.02,0.39-0.09c0.08-0.11-0.04-0.4-0.11-0.49c-0.21-0.28-0.71-0.33-0.71-0.75c0-0.31,0.4-0.55,0.67-0.61
	c0.34-0.07,0.54,0.23,0.59,0.55c0.05,0.28-0.29,0.46-0.12,0.78c0.22,0.42,0.52-0.27,0.62-0.43c0.07-0.11,0.18-0.2,0.31-0.25
	c0.13-0.04,0.24,0.04,0.33-0.06c0.06-0.06,0.05-0.25,0.06-0.33c0.01-0.14,0.09-0.46-0.04-0.56c-0.14-0.11-0.45,0.11-0.63,0.07
	c-0.36-0.08-0.21-0.34,0.04-0.45c0.04-0.02,0.08-0.03,0.12-0.05c0.01,0,0.02-0.01,0.03-0.01c0.09-0.04,0.19-0.07,0.29-0.11
	c0.01,0,0.02-0.01,0.02-0.01c0.05-0.02,0.1-0.03,0.15-0.04c0,0,0,0,0,0h0c0.03-0.01,0.07-0.02,0.1-0.02c0,0,0.01,0,0.01,0
	c0.04-0.01,0.07-0.01,0.1-0.01c0.22-0.02,0.33,0.06,0.55-0.05c0.31-0.15,0.64-0.56,0.99-0.27c0.19,0.15,0.1,0.52,0.27,0.62
	c0.18,0.1,0.51-0.1,0.71-0.08c0.24,0.03,0.39,0.2,0.64,0.2c0.27,0.01,0.61-0.03,0.75-0.3c0.1-0.19,0.03-0.46,0.08-0.67
	c0.07-0.3,0.15-0.31,0.38-0.43c0.16-0.08,0.33-0.3,0.54-0.18c0.13,0.08,0.34,0.49,0.48,0.08c0.07-0.22-0.28-0.44-0.02-0.58
	c0.29-0.16,0.69,0.35,0.9,0.48c0.07,0.04,0.13,0.07,0.19,0.09c0,0,0.01,0,0.01,0c0.03,0.01,0.06,0.02,0.08,0.02c0,0,0.01,0,0.02,0
	c0.03,0.01,0.05,0.01,0.08,0.01h0c0.01,0,0.01,0,0.02,0c0.06,0,0.12,0,0.18-0.02c0.01,0,0.01-0.01,0.02-0.01
	c0.02-0.01,0.04-0.01,0.07-0.02c0.03-0.01,0.06-0.03,0.09-0.04c0.22-0.13,0.34-0.26,0.62-0.22c0.29,0.04,0.39,0.19,0.63-0.05
	c0.2-0.19,0.23-0.48,0.44-0.66c0.16-0.14,0.4-0.14,0.54-0.3c0.2-0.23,0.09-0.58,0.21-0.84c0-0.01,0.01-0.02,0.02-0.03c0,0,0,0,0,0
	c0,0,0,0,0,0c0.08-0.15,0.23-0.23,0.37-0.34c0,0,0,0,0,0c0.02-0.02,0.04-0.04,0.06-0.06c0.17-0.17,0.29-0.35,0.39-0.57
	c0.03-0.07,0.06-0.13,0.09-0.2c0.01-0.02,0.02-0.04,0.02-0.06c0.02-0.05,0.04-0.11,0.05-0.16c0.01-0.02,0.01-0.04,0.02-0.05
	c0.02-0.06,0.03-0.13,0.04-0.19c0.01-0.04,0.02-0.07,0.02-0.11c0-0.03,0.01-0.06,0.01-0.09c0.02-0.16,0.04-0.31,0.05-0.47
	c0,0,0,0,0,0c0.01-0.1,0.01-0.2,0.01-0.31c0-0.01,0-0.01,0-0.02c0-0.1,0-0.21-0.01-0.31c-0.03-0.61,0.2-1.01,0.35-1.59
	c0.07-0.27,0.16-0.54,0.22-0.81C30.94,23,31.15,22.52,30.81,22.6z"/>
</svg>
