<?xml version="1.0" encoding="utf-8"?>
<!-- Generator: Adobe Illustrator 24.0.2, SVG Export Plug-In . SVG Version: 6.00 Build 0)  -->
<svg version="1.1" id="Layer_1" xmlns="http://www.w3.org/2000/svg" xmlns:xlink="http://www.w3.org/1999/xlink" x="0px" y="0px"
	 viewBox="0 0 40 40" style="enable-background:new 0 0 40 40;" xml:space="preserve">
<style type="text/css">
	.st0{fill:none;stroke:#999999;stroke-miterlimit:10;}
</style>
<path class="st0" d="M29.9,26.37c-0.27-0.48-0.73-0.66-0.42-1.27c0.46-0.92,1.89-0.83,2.66-1.34c0.58-0.38,1.05-0.99,1.67-1.31
	c0.58-0.29,1.09-0.41,1.58-0.88c0.54-0.52,0.88-1.17,1.38-1.74c0.35-0.4,0.93-0.66,1.17-1.17c0.03-0.06,0.05-0.1,0.07-0.14
	c-0.29-0.16-0.59-0.33-0.8-0.57c-0.32-0.35-0.42-0.96-0.83-1.24c-0.77-0.54-2.84,0.04-2.98-1.23c-0.1-0.85,0.8-1.46,0.87-2.33
	c-0.04,0.02-0.07,0.03-0.11,0.05c-0.95,0.38-1.77-0.46-2.71-0.51c-1.09-0.06-2.11,0.34-3.12,0.7c-1.21,0.44-2.77,0.73-4.05,0.53
	c-0.26-0.04-0.51-0.04-0.77-0.02c0,0.02,0,0.03,0,0.05c0-0.02,0-0.03,0-0.05c-0.81,0.05-1.61,0.29-2.39,0.07
	c-0.26-0.07-0.47-0.13-0.68-0.17c0,0.01,0,0.03,0,0.04c0-0.01,0-0.03,0-0.04c-0.33-0.07-0.63-0.09-1.02-0.07
	c-1.39,0.1-3.09,0.27-4.23-0.71c-1.1-0.95-1.1-2.53-1.88-3.68c-0.74-1.09-2.27-0.71-3.35-1.35c-0.7-0.41-0.78-0.97-1.51-1.33
	C7.59,7.68,6.08,8.27,5.29,9.29c-0.42,0.54-0.46,1.29-0.63,1.94c-0.32,1.25-1.08,2.35-0.68,3.66c0.59,1.96,1.65,5.64-0.65,7.07
	c-0.37,0.23-0.85,0.2-1.31,0.07c-0.08,0.77,0.28,1.59,0.41,2.32c0.15,0.83,0.66,1.54,0.99,2.29c0.4,0.89,0.19,1.96,0.95,2.75
	c0.8,0.82,1.44,1.45,1.86,2.58c0,0,0,0,0,0c0.12-0.03,0.24-0.05,0.35-0.08c0.01,0,0.03-0.01,0.04-0.01
	c0.12-0.02,0.24-0.04,0.35-0.05c0.77-0.06,1.16,0.21,1.94-0.17c1.09-0.53,2.27-1.97,3.52-0.96c0.68,0.55,0.34,1.84,0.97,2.19
	c0.65,0.37,1.8-0.36,2.53-0.27c0.83,0.1,1.37,0.69,2.26,0.72c0.94,0.03,2.16-0.12,2.64-1.06c0.35-0.67,0.1-1.61,0.27-2.36
	c0.24-1.05,0.52-1.11,1.33-1.54c0.57-0.3,1.16-1.07,1.9-0.63c0.47,0.28,1.21,1.74,1.69,0.27c0.26-0.78-1-1.57-0.07-2.06
	c1.04-0.55,2.43,1.25,3.17,1.7c0.23,0.14,0.46,0.25,0.69,0.33c0.01,0,0.03,0.01,0.04,0.01c0.1,0.03,0.19,0.06,0.29,0.09
	c0.02,0,0.03,0,0.05,0.01c0.09,0.02,0.19,0.04,0.28,0.04c0,0,0,0,0,0C30.21,27.55,30.22,26.94,29.9,26.37z"/>
</svg>
