<?xml version="1.0" encoding="utf-8"?>
<!-- Generator: Adobe Illustrator 24.0.2, SVG Export Plug-In . SVG Version: 6.00 Build 0)  -->
<svg version="1.1" id="Layer_1" xmlns="http://www.w3.org/2000/svg" xmlns:xlink="http://www.w3.org/1999/xlink" x="0px" y="0px"
	 viewBox="0 0 40 40" style="enable-background:new 0 0 40 40;" xml:space="preserve">
<style type="text/css">
	.st0{fill:none;stroke:#999999;stroke-miterlimit:10;}
</style>
<path class="st0" d="M14.63,32.69L14.63,32.69c1.49,0.53,3.31,0.25,4.6-0.64c0.88-0.61,1.12-1.84,2.23-2.12
	c1.23-0.32,2.09,0.41,3.2,0.69c0.98,0.25,2.27-0.12,3.15,0.38c0.63,0.36,0.77,1.1,1.43,1.44c0.63,0.31,1.56,0.5,2.25,0.57
	c0.87,0.08,1.65-0.41,2.3-0.9c0.55-0.42,0.72-1.28,1.22-1.57c-0.29-0.34-0.52-0.73-0.68-1.18c-0.43-1.21-0.3-2.61-1.91-2.68
	c0,0.01-0.01,0.02-0.01,0.02c0-0.01,0.01-0.02,0.01-0.02c-0.03,0-0.06-0.01-0.09-0.01c-0.68,0-1.46,0.84-2.08,0.43
	c-0.48-0.32-0.25-0.68-1-0.57c-0.42,0.06-1.03,0.34-1.31-0.12c-0.2-0.33-0.19-1.51-0.23-1.93c-0.11-1.31,1.89-1.75,1.96-3.19
	c0.01-0.13,0-0.25-0.01-0.38c-0.01-0.01-0.02-0.01-0.04-0.02c0.01,0.01,0.02,0.01,0.04,0.02c-0.14-1.51-1.5-2.63-1.24-4.26
	c0.13-0.85,0.18-1.4,0.59-2.16c0.29-0.54,0.57-1.23-0.13-1.63c-0.96-0.54-1.41-1.35-0.93-2.34c-0.13,0.02-0.28,0.03-0.46,0.02
	c-0.69-0.03-0.96-0.43-1.58-0.63c-1.29-0.43-2.26,0.67-3.39,1.01c-1.05,0.32-2.26,0.11-3.12-0.56c-0.22-0.17-0.41-0.37-0.62-0.55
	c-0.25-0.21-0.53-0.43-0.78-0.63l0,0l0,0c-0.05,0-0.11-0.01-0.16-0.02c-0.23-0.04-0.4-0.14-0.6-0.25c-0.33-0.17-0.69-0.31-1.03-0.48
	c-0.43-0.21-0.88-0.38-1.28-0.64c-0.6-0.39-1.36-0.87-2.12-0.78c-0.89,0.1-1.4,1.02-2.12,1.49c-0.43,0.28-1,0.6-0.75,1.15
	c0.21,0.47,0.84,0.63,0.9,1.22c0.1,0.85-0.85,1.23-1.51,1.43c-0.35,0.1-0.77,0.28-1.13,0.31c-0.53,0.05-0.92-0.15-1.44,0.13
	c-0.64,0.34-1.62,1.1-1.73,1.88c-0.19,1.33,1.55,1.41,2.42,1.71c0.91,0.31,1.73,0.86,2.64,1.22c0.56,0.22,1.26,0.38,1.73,0.8
	c1.3,1.14,0.51,3.23,0.75,4.68c0.13,0.78,0.95,1.07,1.2,1.81c0.46,1.38-0.86,2.91,0.04,4.26c0.44,0.66,1.24,1.04,1.5,1.87
	c0.03,0.11,0.06,0.22,0.07,0.31c0,0.03,0,0.06,0,0.09c0.01,0.06,0.01,0.12,0.01,0.17c0,0.03-0.01,0.06-0.01,0.09
	c-0.01,0.04-0.01,0.09-0.02,0.13c-0.01,0.03-0.02,0.05-0.03,0.07c-0.02,0.04-0.03,0.08-0.05,0.12c-0.01,0.02-0.02,0.04-0.04,0.05
	c-0.03,0.04-0.05,0.09-0.09,0.13c0,0.01-0.01,0.01-0.02,0.02c-0.13,0.16-0.29,0.32-0.47,0.52l0,0
	C14.64,32.67,14.64,32.68,14.63,32.69L14.63,32.69z"/>
</svg>
