<?xml version="1.0" encoding="utf-8"?>
<!-- Generator: Adobe Illustrator 24.0.2, SVG Export Plug-In . SVG Version: 6.00 Build 0)  -->
<svg version="1.1" id="Layer_1" xmlns="http://www.w3.org/2000/svg" xmlns:xlink="http://www.w3.org/1999/xlink" x="0px" y="0px"
	 viewBox="0 0 40 40" style="enable-background:new 0 0 40 40;" xml:space="preserve">
<style type="text/css">
	.st0{fill:none;stroke:#999999;stroke-miterlimit:10;}
</style>
<path class="st0" d="M40.09,6.22c-0.32,0.26-0.59,0.84-1,0.92c-0.8,0.15-1.58-0.37-2.38-0.36C35.86,6.79,35,6.7,34.16,6.86
	c-0.8,0.15-1.68,0.7-2.5,0.7c-0.1,0-0.2-0.02-0.3-0.03c-0.39,0.26-0.38,0.11-0.71,0.29c-0.48,0.25-0.58,0.54-0.86,0.95
	c-0.24,0.35-0.58,0.48-0.97,0.65c-0.39,0.16-0.81,0.26-0.87,0.71c-0.07,0.47,0.5,0.81,0.36,1.24c-0.11,0.32-0.82,0.63-1.11,0.72
	c-0.94,0.28-1.09-0.54-1.86-0.75c-0.66-0.18-1.27,0.48-1.88,0.63c-1,0.24-1.68,0.79-2.39,1.57c-0.42,0.46-1.08,0.8-1.41,1.33
	c-0.33,0.54,0.04,0.92,0.16,1.44c0.32,1.46-0.56,2.98-0.11,4.44c0.21,0.67,0.39,1.3,0.94,1.76c0.38,0.32,0.88,0.53,1.21,0.92
	c0.51,0.6-0.17,0.73-0.4,1.32c-0.31,0.77-0.42,1.31-1.29,1.51c-0.07,0.02-0.14,0.04-0.22,0.06c0.3,0.55,0.22,1.53,0.1,2.24
	c-0.05,0.32-0.19,0.59-0.38,0.82c0.49,0.25,0.54,0.62,1.02,0.9c0.73,0.42,1.76,0.17,2.26,0.91c0.52,0.77,0.53,1.84,1.27,2.48
	c0.77,0.66,1.91,0.55,2.85,0.48c0.27-0.02,0.47,0,0.69,0.04c-0.05-0.6-0.71-1.11-0.39-1.69c0.15-0.26,0.3-0.37,0.4-0.67
	c0.09-0.26,0.01-0.4,0.31-0.57c0.35-0.2,0.71-0.19,0.84-0.64c0.47-1.6-2.06-0.03-1.95-1.12c0.04-0.42,1-1.47,1.43-1.36
	c0.25,0.06,0.38,0.45,0.7,0.43c0.3-0.02,0.37-0.25,0.52-0.46c0.55-0.78,1.24-1.08,2.15-1.26c1.12-0.23,0.97,0.8,1.28,1.64
	c0.37,1.01-0.48,1.63-1.04,2.39c-0.31,0.42-0.11,1.53-0.5,1.79c-0.46,0.3-0.7-0.47-1.07-0.55c-0.8-0.18-0.63,1.3-0.63,2.15
	c0.17-0.01,0.34-0.01,0.52,0.02c0.86,0.14,1.91-0.06,2.73-0.35c0.67-0.24,1.37-0.51,2.1-0.47c0.64,0.04,1.19,0.6,1.83,0.34
	c0.03-0.01,0.05-0.02,0.07-0.03c0-0.02,0.01-0.03,0.01-0.05c0,0.02-0.01,0.03-0.01,0.05c0.89-0.37,1.74-1,2.71-0.56
	c0.46,0.21,0.75,0.42,1.3,0.41c1.02-0.01,1.87-0.56,2.87-0.54l0,0l0,0c0,0,0,0,0-0.01l0,0c0.01-0.24,0.02-0.49,0.02-0.73
	c0-0.01,0-0.03,0-0.04c0-0.25-0.01-0.49-0.02-0.73c-0.07-1.45,0.48-2.42,0.82-3.79c0.16-0.65,0.38-1.28,0.54-1.93
	c0.08-0.33,0.57-1.46-0.23-1.28c-0.3,0.07-0.63,0.52-0.86,0.72c-0.46,0.4-1.03,1.05-1.65,0.65c-0.79-0.52-0.2-1.41-0.04-2.06
	c0.18-0.71,0.27-1.52,0.3-2.25c0.09-1.69,0.22-3.35,0.3-5.05c0.08-1.66,0.05-3.46-0.38-5.08c-0.06-0.24-0.12-0.49-0.17-0.74
	c-0.01-0.03-0.01-0.06-0.02-0.09c-0.33-1.65-0.46-3.44-1.03-4.98v0C41,5.81,40.54,5.85,40.09,6.22z"/>
</svg>
