<?xml version="1.0" encoding="utf-8"?>
<!-- Generator: Adobe Illustrator 24.0.2, SVG Export Plug-In . SVG Version: 6.00 Build 0)  -->
<svg version="1.1" id="Layer_1" xmlns="http://www.w3.org/2000/svg" xmlns:xlink="http://www.w3.org/1999/xlink" x="0px" y="0px"
	 viewBox="0 0 40 40" style="enable-background:new 0 0 40 40;" xml:space="preserve">
<style type="text/css">
	.st0{fill:none;stroke:#999999;stroke-miterlimit:10;}
</style>
<path class="st0" d="M12.28,8.94c-0.55,0.31-1.19,0.32-1.75,0.62C10,9.85,9.72,10.31,9.37,10.79c-0.6,0.82-1.51,1.14-2.38,1.64
	c-0.3,0.17-0.52,0.26-0.79,0.3c-0.5,1.03-0.03,1.88,0.97,2.45c0.73,0.41,0.44,1.13,0.13,1.7c-0.43,0.8-0.48,1.37-0.62,2.26
	c-0.27,1.7,1.15,2.88,1.3,4.46c0.34,0.16,0.49,0.1,0.77,0.37c0.28,0.28,0.26,0.66,0.61,0.88c0.34,0.21,0.78,0.05,1.14,0.17
	c0.6,0.21,0.36,0.47,0.63,0.96c0.43,0.79,1.49,0.46,0.63,1.63c-0.22,0.3-0.52,0.51-0.64,0.88c-0.12,0.37-0.04,0.82-0.25,1.14
	c1.69,0.07,1.55,1.54,2,2.8c0.17,0.47,0.41,0.88,0.71,1.24c0.02-0.01,0.03-0.02,0.04-0.03c-0.01,0.01-0.03,0.02-0.04,0.03
	c0.47,0.55,1.08,0.97,1.8,1.24c0.99,0.37,2.18-0.03,3.19-0.29c0-0.01,0-0.02-0.01-0.02c0,0.01,0.01,0.02,0.01,0.02
	c0.1-0.03,0.2-0.05,0.3-0.07c1.17-0.28,1.32-1,1.74-2.04c0.31-0.79,1.23-0.96,0.54-1.78c-0.44-0.52-1.12-0.81-1.63-1.24
	c-0.75-0.63-1-1.48-1.27-2.38c-0.61-1.98,0.58-4.03,0.15-6.01c-0.15-0.7-0.66-1.22-0.21-1.95c0.44-0.72,1.34-1.18,1.9-1.8
	c0.96-1.05,1.88-1.79,3.23-2.12c0.82-0.2,1.64-1.1,2.53-0.86c1.04,0.29,1.24,1.4,2.52,1.02c0.39-0.12,1.36-0.53,1.5-0.97
	c0.19-0.59-0.58-1.04-0.49-1.68c0.08-0.6,0.65-0.73,1.18-0.96c0.53-0.22,0.99-0.4,1.32-0.88c0.38-0.56,0.51-0.95,1.16-1.29
	c0.45-0.24,0.44-0.04,0.96-0.39c-1.04-0.2-1.93-1.12-3.06-1.11c-0.85,0.01-1.44-0.05-2.23-0.46c-1.48-0.77-2.68-2.06-4.36-2.41
	c-1.08-0.23-2.44-0.47-3.55-0.19c-1.55,0.39-3.51,3.22-5.04,1.35c-0.12-0.15-0.26-0.28-0.4-0.42c-0.08,0.12-0.16,0.24-0.27,0.35
	C14.31,7.25,13.36,8.33,12.28,8.94z"/>
</svg>
