<?xml version="1.0" encoding="utf-8"?>
<!-- Generator: Adobe Illustrator 24.0.2, SVG Export Plug-In . SVG Version: 6.00 Build 0)  -->
<svg version="1.1" id="Layer_1" xmlns="http://www.w3.org/2000/svg" xmlns:xlink="http://www.w3.org/1999/xlink" x="0px" y="0px"
	 viewBox="0 0 40 40" style="enable-background:new 0 0 40 40;" xml:space="preserve">
<style type="text/css">
	.st0{fill:none;stroke:#999999;stroke-miterlimit:10;}
</style>
<path class="st0" d="M5.18,29.67c0.9,0.55,1.96,0.49,2.87-0.02c1.21-0.68,2.25-1.93,3.49-2.47c1.36-0.59,3.77,0,5.1,0.46
	c1.15,0.4,1.77,1.61,2.99,2.06c1.15,0.43,2.18,1.16,3.37,1.48c0.61,0.16,1.22,0.22,1.84,0.08c0.73-0.17,0.94-0.73,1.58-0.98
	c0.65-0.25,1.45,0.02,2,0.38c0.31,0.2,0.74,0.42,1.18,0.54c0-0.03,0-0.06,0.01-0.08c0,0.03,0,0.06-0.01,0.08
	c0.48,0.14,0.98,0.16,1.36-0.08c2.39-1.49,1.29-5.3,0.68-7.33c-0.41-1.35,0.38-2.49,0.7-3.79c0.17-0.67,0.21-1.45,0.65-2
	c0.82-1.05,2.39-1.66,3.26-2.73c-0.01-0.01-0.02-0.02-0.04-0.02c0.01,0.01,0.02,0.02,0.04,0.02c0.29-0.36,0.51-0.77,0.59-1.26
	c0.17-1.09,0.3-2.6-0.16-3.44c-1.15,0.3-2.5,0.75-3.63,0.33c-0.81-0.3-1.51-0.78-2.04-1.41c-0.59,0.35-0.79,1.37-1.45,1.87
	c-0.78,0.59-1.71,1.17-2.74,1.07c-0.82-0.08-1.93-0.3-2.68-0.67c-0.79-0.4-0.95-1.28-1.71-1.71c-1.05-0.6-2.58-0.16-3.75-0.45
	c-1.32-0.34-2.34-1.2-3.8-0.82c-1.32,0.34-1.61,1.8-2.65,2.53c-1.54,1.07-3.71,1.39-5.48,0.76c0,0-0.01,0.01-0.02,0.02
	c-0.66,0.77-0.6,1.16,0.18,1.92c0.31,0.3,0.6,0.45,0.83,0.86c0.24,0.43-0.13,0.53,0.36,0.84c0.77,0.49,1.73-0.45,1.78,0.84
	c0.04,1.05-0.99,1.3-1.78,1.59C7,18.53,6.4,18.64,5.94,19.72c-0.2,0.47-0.34,0.94-0.63,1.38c-0.26,0.39-0.88,0.79-1,1.24
	c-0.34,1.31,1.4,0.98,2.2,1.23c1.7,0.53-0.17,1.54-1.01,1.93c-1.38,0.65-1.86,1.11-2.46,2.56C3.02,28.09,3.01,28.12,3,28.15
	C3.95,28.16,4.44,29.22,5.18,29.67z"/>
</svg>
