<?xml version="1.0" encoding="utf-8"?>
<!-- Generator: Adobe Illustrator 24.0.2, SVG Export Plug-In . SVG Version: 6.00 Build 0)  -->
<svg version="1.1" id="Layer_1" xmlns="http://www.w3.org/2000/svg" xmlns:xlink="http://www.w3.org/1999/xlink" x="0px" y="0px"
	 viewBox="0 0 40 40" style="enable-background:new 0 0 40 40;" xml:space="preserve">
<style type="text/css">
	.st0{fill:none;stroke:#999999;stroke-miterlimit:10;}
</style>
<path class="st0" d="M31.6,9.85c-1.99-0.06-3.19,0.37-4.97,0.95c-2,0.65-4.17,0.48-6.23,0.82c-2.06,0.33-4.13,0.24-6.11,1.04
	c-2.2,0.88-3.78,2.71-5.51,4.24c-2.25,2-8.09,5.71-6.52,9.51c1.64,3.98,7.59,3.83,10.98,3.7c2.81-0.11,5.94-0.44,8.58-1.44
	c2.85-1.07,5.46-2.74,8.39-3.76c4.34-1.5,6.87-2.28,7.66-7.02C38.58,13.64,36.15,10,31.6,9.85z"/>
</svg>
